<?xml version="1.0" encoding="UTF-8"?>
<!DOCTYPE svg PUBLIC "-//W3C//DTD SVG 1.1//EN" "http://www.w3.org/Graphics/SVG/1.1/DTD/svg11.dtd">
<!-- Creator: CorelDRAW -->
<svg xmlns="http://www.w3.org/2000/svg" xml:space="preserve" width="6.82666in" height="6.82666in" style="shape-rendering:geometricPrecision; text-rendering:geometricPrecision; image-rendering:optimizeQuality; fill-rule:evenodd; clip-rule:evenodd"
viewBox="0 0 6.82666 6.82666"
 xmlns:xlink="http://www.w3.org/1999/xlink">
 <defs>
  <style type="text/css">
   <![CDATA[
    .fil1 {fill:none}
    .fil0 {fill:#ffffff00} 
    .fil2 {fill:#424242;fill-rule:nonzero}
   ]]>
  </style>
 </defs>
 <rect class="fil0" width="6.82666" height="6.82666"/>
 <g id="Layer_x0020_1">
  <metadata id="CorelCorpID_0Corel-Layer"/>
  <g id="_369020288">
   <rect id="_369020240" class="fil1" width="6.82666" height="6.82666"/>
   <rect id="_369019928" class="fil1" x="0.853331" y="0.853331" width="5.12" height="5.12"/>
  </g>
  <path class="fil2" d="M2.71914 0.903276c0.461378,0 0.879094,0.18702 1.18146,0.48939 0.30237,0.302366 0.48939,0.720083 0.48939,1.18146 0,0.461378 -0.18702,0.879091 -0.48939,1.18146 -0.302366,0.30237 -0.720083,0.48939 -1.18146,0.48939 -0.461378,0 -0.879094,-0.18702 -1.18146,-0.48939 -0.30237,-0.30237 -0.48939,-0.720083 -0.48939,-1.18146 0,-0.461378 0.18702,-0.879094 0.48939,-1.18146 0.302366,-0.30237 0.720083,-0.48939 1.18146,-0.48939zm1.03063 0.640224c-0.263748,-0.263752 -0.628134,-0.426886 -1.03063,-0.426886 -0.402492,0 -0.766878,0.163134 -1.03063,0.426886 -0.263752,0.263748 -0.426886,0.628134 -0.426886,1.03063 0,0.402492 0.163134,0.766874 0.426886,1.03063 0.263748,0.263752 0.628134,0.426886 1.03063,0.426886 0.402492,0 0.766878,-0.163134 1.03063,-0.426886 0.263752,-0.263752 0.426886,-0.628134 0.426886,-1.03063 0,-0.402492 -0.163134,-0.766878 -0.426886,-1.03063z"/>
  <polygon class="fil2" points="3.77209,3.71988 5.84345,5.79124 5.69262,5.94208 3.62126,3.87072 "/>
 </g>
</svg>
